<?xml version="1.0" standalone="no"?>
<!DOCTYPE svg PUBLIC "-//W3C//DTD SVG 20010904//EN"
 "http://www.w3.org/TR/2001/REC-SVG-20010904/DTD/svg10.dtd">
<svg version="1.0" xmlns="http://www.w3.org/2000/svg"
 width="700.000000pt" height="700.000000pt" viewBox="0 0 700.000000 700.000000"
 preserveAspectRatio="xMidYMid meet">
<metadata>
Created by potrace 1.11, written by Peter Selinger 2001-2013
</metadata>
<g transform="translate(0.000000,700.000000) scale(0.100000,-0.100000)"
fill="#000000" stroke="none">
<path d="M3435 6953 c-78 -12 -152 -33 -305 -90 -96 -36 -184 -69 -195 -74
-11 -5 -51 -20 -90 -35 -38 -14 -113 -41 -165 -61 -155 -58 -211 -79 -290
-107 -41 -16 -84 -32 -95 -37 -21 -9 -322 -122 -390 -146 -37 -13 -207 -78
-330 -125 -27 -11 -61 -23 -75 -28 -79 -25 -1084 -406 -1130 -428 -179 -86
-301 -239 -351 -442 -18 -71 -19 -150 -18 -1685 1 -1795 -4 -1681 72 -1835 33
-68 58 -102 124 -167 l83 -83 1487 -743 c819 -409 1511 -751 1538 -760 112
-36 247 -39 362 -7 52 14 510 238 1563 765 l1490 745 69 68 c89 87 145 175
179 282 l27 85 0 1655 0 1655 -28 79 c-51 140 -119 237 -222 316 -83 64 -118
79 -605 259 -91 34 -181 68 -200 76 -36 14 -730 274 -797 298 -70 26 -958 358
-982 368 -79 33 -465 174 -510 186 -51 14 -171 22 -216 16z m112 -904 c15 -6
55 -21 88 -34 149 -56 564 -212 705 -265 85 -32 517 -194 960 -360 443 -166
811 -306 817 -312 10 -8 -44 -33 -195 -94 -114 -46 -215 -88 -224 -94 -10 -5
-22 -10 -28 -10 -5 0 -53 -18 -107 -41 -54 -22 -108 -45 -120 -50 -13 -5 -33
-13 -45 -19 -13 -5 -95 -38 -183 -74 -88 -36 -261 -106 -385 -156 -124 -51
-353 -144 -510 -207 -157 -63 -297 -121 -312 -129 -15 -8 -31 -15 -35 -15 -12
-2 -305 -119 -348 -139 -11 -5 -44 -19 -73 -30 l-53 -20 -262 106 c-144 59
-370 151 -502 204 -132 54 -312 127 -400 163 -306 124 -492 200 -810 328 -176
71 -330 134 -342 139 -13 6 -33 14 -45 20 -13 5 -75 30 -138 55 -135 55 -136
56 -119 65 8 5 142 56 299 115 434 163 878 329 1620 609 371 140 685 254 697
255 12 1 34 -4 50 -10z m2578 -2843 l0 -913 -1092 -547 c-853 -426 -1093 -542
-1094 -528 0 9 -1 467 -1 1016 l-1 999 144 59 c79 33 261 106 404 164 143 58
269 109 280 114 11 5 83 35 160 66 77 30 153 62 169 70 16 8 33 14 38 14 4 0
27 9 51 19 23 11 112 47 197 81 85 35 205 83 265 108 61 24 121 49 135 54 14
6 93 39 175 73 83 35 155 63 160 64 7 1 10 -310 10 -913z"/>
</g>
</svg>
